HIERARCHY
ROOT root
{
	OFFSET 0.000000 0.000000 0.000000
	CHANNELS 6 Xposition Yposition Zposition Zrotation Yrotation Xrotation
	JOINT lhip
	{
		OFFSET 0.058581 -0.082280 -0.017664
		CHANNELS 3 Zrotation Yrotation Xrotation
		JOINT lknee
		{
			OFFSET 0.043451 -0.386469 0.008037
			CHANNELS 3 Zrotation Yrotation Xrotation
			JOINT lankle
			{
				OFFSET -0.014790 -0.426874 -0.037428
				CHANNELS 3 Zrotation Yrotation Xrotation
				JOINT ltoe
				{
					OFFSET 0.041054 -0.060286 0.122042
					CHANNELS 3 Zrotation Yrotation Xrotation
					End Site
					{
						OFFSET 0.000000 0.000000 0.000000
					}
				}
			}
		}
	}
	JOINT rhip
	{
		OFFSET -0.060310 -0.090513 -0.013543
		CHANNELS 3 Zrotation Yrotation Xrotation
		JOINT rknee
		{
			OFFSET -0.043257 -0.383688 -0.004843
			CHANNELS 3 Zrotation Yrotation Xrotation
			JOINT rankle
			{
				OFFSET 0.019056 -0.420046 -0.034562
				CHANNELS 3 Zrotation Yrotation Xrotation
				JOINT rtoe
				{
					OFFSET -0.034840 -0.062106 0.130323
					CHANNELS 3 Zrotation Yrotation Xrotation
					End Site
					{
						OFFSET 0.000000 0.000000 0.000000
					}
				}
			}
		}
	}
	JOINT lowerback
	{
		OFFSET 0.004439 0.124404 -0.038385
		CHANNELS 3 Zrotation Yrotation Xrotation
		JOINT upperback
		{
			OFFSET 0.004488 0.137956 0.026820
			CHANNELS 3 Zrotation Yrotation Xrotation
			JOINT chest
			{
				OFFSET -0.002265 0.056032 0.002855
				CHANNELS 3 Zrotation Yrotation Xrotation
				JOINT lowerneck
				{
					OFFSET -0.013390 0.211636 -0.033468
					CHANNELS 3 Zrotation Yrotation Xrotation
					JOINT upperneck
					{
						OFFSET 0.010113 0.088937 0.050410
						CHANNELS 3 Zrotation Yrotation Xrotation
						End Site
						{
							OFFSET 0.000000 0.000000 0.000000
						}
					}
				}
				JOINT lclavicle
				{
					OFFSET 0.071702 0.114000 -0.018898
					CHANNELS 3 Zrotation Yrotation Xrotation
					JOINT lshoulder
					{
						OFFSET 0.122921 0.045205 -0.019046
						CHANNELS 3 Zrotation Yrotation Xrotation
						JOINT lelbow
						{
							OFFSET 0.255332 -0.015649 -0.022946
							CHANNELS 3 Zrotation Yrotation Xrotation
							JOINT lwrist
							{
								OFFSET 0.265709 0.012698 -0.007375
								CHANNELS 3 Zrotation Yrotation Xrotation
								End Site
								{
									OFFSET 0.000000 0.000000 0.000000
								}
							}
						}
					}
				}
				JOINT rclavicle
				{
					OFFSET -0.082954 0.112472 -0.023707
					CHANNELS 3 Zrotation Yrotation Xrotation
					JOINT rshoulder
					{
						OFFSET -0.113228 0.046853 -0.008472
						CHANNELS 3 Zrotation Yrotation Xrotation
						JOINT relbow
						{
							OFFSET -0.260127 -0.014369 -0.031269
							CHANNELS 3 Zrotation Yrotation Xrotation
							JOINT rwrist
							{
								OFFSET -0.269108 0.006794 -0.006027
								CHANNELS 3 Zrotation Yrotation Xrotation
								End Site
								{
									OFFSET 0.000000 0.000000 0.000000
								}
							}
						}
					}
				}
			}
		}
	}
}
MOTION
Frames: 10
Frame Time: 0.033333
-0.068997 -1.309830 0.930550 -168.585515 2.526252 103.897075 13.241877 3.353664 13.395926 -5.309904 -12.644572 21.018262 -5.244352 0.000974 -2.404017 0.000000 -0.000000 0.000000 -7.958291 5.669796 -60.368166 1.620340 -16.119341 74.384856 -0.460370 -0.409126 -10.958074 0.000000 -0.000000 0.000000 -4.845252 -12.013480 15.390793 8.770348 -4.059218 11.114391 4.913379 -6.711642 -5.457452 -3.289002 20.858897 2.879384 -8.611932 16.158312 -6.900082 -17.082718 -3.199708 6.248055 -57.500168 -7.163527 11.610159 78.043870 -81.024752 -54.239064 18.226250 -1.745703 -20.971623 22.217386 4.684276 1.031358 51.842200 20.910135 4.155798 -72.209948 47.267725 -74.348797 5.177478 8.988734 -46.390383 
-0.071011 -1.152869 0.935300 -170.773235 3.552744 103.298505 13.651404 3.239508 20.043037 -1.193039 -9.904560 25.626429 -4.572726 7.775018 -4.113083 0.000000 -0.000000 0.000000 -8.388543 5.452467 -57.307053 7.094405 -13.231557 47.725651 1.735059 -1.302485 -8.840182 0.000000 -0.000000 0.000000 -4.146956 -12.924634 13.697740 9.956843 -4.899873 10.224034 6.186897 -8.119741 -3.421488 -0.683380 16.079826 -2.933363 -11.444108 12.983534 -8.032917 -17.061906 0.076425 8.273005 -55.702799 -5.873231 10.674234 61.933009 -85.404805 -38.108903 16.940053 -4.753142 -21.960821 22.167926 2.788113 -0.315121 57.537723 23.988196 10.543909 -86.994252 49.083864 -82.118407 4.920532 7.020806 -36.929327 
-0.070326 -1.001087 0.927598 -174.411328 3.328095 103.231633 11.183996 1.514142 22.025053 -4.507593 -6.968670 38.772566 -3.972968 8.270741 -5.431368 0.000000 -0.000000 0.000000 -7.124816 5.036622 -53.453677 7.410479 -10.333011 29.237831 3.880303 -1.067248 -4.146373 0.000000 -0.000000 0.000000 -4.951878 -10.906222 11.203741 11.534042 -6.317621 9.858731 5.770201 -8.601469 -1.206335 0.653977 21.378900 -5.072246 -13.655962 13.319686 -4.280973 -15.007686 2.753234 8.901435 -57.585456 -2.204388 10.816091 -17.930489 -80.884486 42.477318 14.297473 -5.081307 -18.504260 23.758499 1.512289 -2.839749 62.188944 28.837637 17.196240 -101.587506 49.977669 -89.164182 5.044431 5.683144 -28.131506 
-0.074098 -0.810494 0.909854 -179.575277 4.284758 101.147151 10.668953 4.162235 18.548088 -6.056180 0.722066 65.080828 -3.261858 10.045717 -4.427362 0.000000 -0.000000 0.000000 -3.597380 4.215569 -46.887030 8.922905 -11.661916 29.119318 -2.885640 -2.558131 -4.422576 0.000000 -0.000000 0.000000 -2.318908 -8.335266 11.140462 10.971334 -5.489602 9.634449 4.525128 -7.471937 -0.420953 1.257464 21.569033 -8.635918 -12.891835 16.317089 -3.622212 -15.267749 0.833333 9.763265 -62.082136 7.628122 9.037083 -23.624091 -64.486175 46.292385 10.230808 -3.982169 -20.047066 21.738455 5.560099 -4.761598 64.776562 33.516000 19.593405 -120.943817 50.465643 -98.644823 10.054508 2.595265 -13.955338 
-0.075907 -0.699947 0.895941 177.697959 4.375519 99.374864 10.513065 5.172625 13.499212 -4.332463 5.375105 82.331377 0.739971 11.622478 -4.341760 0.000000 -0.000000 0.000000 -2.085525 4.403364 -45.920419 9.512161 -12.556124 44.841065 -10.491256 -7.329079 -15.848428 0.000000 -0.000000 0.000000 -1.172682 -6.558057 12.635747 10.450893 -3.713974 9.322474 3.331485 -6.433294 -0.224454 2.046230 21.151879 -11.206453 -14.372498 17.019009 -2.643147 -16.162499 -0.201071 9.466717 -64.020314 13.162089 6.633091 -22.193202 -52.076338 45.221399 6.724363 -3.466338 -15.928413 19.765678 8.815929 -5.747486 63.269267 35.617614 19.551307 -130.832243 51.579468 -104.127858 12.814474 1.342660 -9.027345 
-0.077280 -0.559535 0.891249 176.601776 5.295971 98.073363 11.453161 5.117778 -0.082926 -4.054583 7.596465 102.725696 2.562398 11.221196 -5.773330 0.000000 -0.000000 0.000000 0.377914 5.659620 -36.793411 8.541845 -12.276573 50.718743 -13.335208 -11.891062 -26.602914 0.000000 -0.000000 0.000000 1.881349 -2.853170 14.619705 9.443405 -2.385492 10.534712 2.261367 -3.755360 -1.009295 0.801569 18.008565 -15.028103 -14.052022 14.007015 -4.853251 -19.299766 -2.256955 8.596175 -62.347218 18.357151 3.685573 -19.671777 -36.807661 44.361315 1.857984 -1.228481 -5.979635 19.591847 13.017198 -4.133544 53.595878 35.318960 13.221842 -139.408248 55.096617 -109.030350 7.304657 2.802293 -1.963194 
-0.079360 -0.414476 0.898470 179.269023 2.813201 97.931674 8.753585 1.080962 -17.703734 -6.998466 10.325672 111.138514 1.733857 8.146362 -7.693397 0.000000 -0.000000 0.000000 0.586278 0.590598 -22.823793 9.037538 -6.724751 47.544392 -11.484755 -13.772168 -32.618644 0.000000 -0.000000 0.000000 1.851618 3.330792 14.504988 8.229108 -2.225942 9.632776 1.870596 -1.841209 -1.785461 -0.014514 11.745668 -14.629965 -10.129202 8.203669 -6.210078 -20.728821 -2.316690 10.381986 -54.202375 25.176253 5.043244 -25.590098 -37.958077 47.869685 0.503268 0.419987 -5.745262 21.615447 13.068483 -1.877644 45.043562 28.012351 7.784625 -132.475349 63.165005 -105.827047 5.691032 3.548144 0.724968 
-0.081051 -0.265156 0.916590 179.451228 0.561222 97.352016 7.442226 -2.577018 -32.074756 -8.344990 13.212505 105.852730 1.878635 7.928321 -7.059229 0.000000 -0.000000 0.000000 -2.075985 -3.910537 -7.305747 10.003705 -1.097489 39.938370 -5.934950 -9.145629 -28.027805 0.000000 -0.000000 0.000000 -1.366322 10.854830 12.723368 8.285609 -1.574258 9.047597 1.994036 0.750221 -0.737791 1.023562 9.304936 -14.801482 -7.245098 -0.917612 -3.798123 -17.202415 1.394824 10.693179 -44.662956 28.589365 9.514337 -38.833428 -44.951059 58.383124 -4.300226 -5.538351 -11.849617 24.052635 10.040144 -1.971986 38.769036 24.074286 5.432011 -80.535127 73.268332 -58.609054 12.064676 -0.264712 7.946160 
-0.085199 -0.108494 0.939438 178.141453 -0.605035 96.604314 8.403012 -5.050405 -40.656701 -8.128068 15.162899 90.468836 2.663009 8.387231 -7.655129 0.000000 -0.000000 0.000000 -6.897371 -5.917772 7.527499 10.008801 5.463704 30.172105 3.893508 -0.146654 -10.571381 0.000000 -0.000000 0.000000 -4.787496 16.747229 9.485277 7.724284 -0.153327 9.145380 2.649052 3.433032 0.000725 1.909407 6.837883 -10.958360 -2.397770 -5.742421 -4.183874 -11.272413 4.343104 11.488026 -40.996624 29.964914 14.642410 -50.632788 -53.958010 72.310788 -9.248880 -10.118306 -17.755774 21.843586 9.011625 -2.686235 35.984616 23.485695 4.758099 -12.741970 56.818070 3.164836 27.412674 -10.156381 5.748039 
-0.089439 0.085210 0.963071 179.113998 -1.114712 96.082920 10.506780 -7.297984 -45.186298 -9.420650 15.262144 62.753830 1.426367 9.100242 -6.346298 0.000000 -0.000000 0.000000 -10.294361 -7.438205 21.852817 4.368135 8.279112 21.740804 7.746757 -1.474888 1.497625 0.000000 -0.000000 0.000000 -8.100341 20.165531 5.329083 6.329070 1.781334 11.206314 3.857996 6.307439 -2.171283 2.302213 -1.525557 -4.110005 4.324719 -8.947647 -8.197838 -4.717765 5.051147 16.065697 -44.827632 29.410466 16.294732 -65.772853 -67.882926 93.104199 -6.261989 -13.218986 -29.756535 15.748060 14.668222 1.523590 37.723913 22.618009 6.318655 9.556846 18.198486 18.635772 51.131484 -10.930376 -7.909270 
